<svg version="1.1" id="Layer_1" xmlns="http://www.w3.org/2000/svg" xmlns:xlink="http://www.w3.org/1999/xlink" x="0px" y="0px" viewBox="0 0 500 500" style="width: 166px;" xml:space="preserve" data-imageid="twitter-66" imageName="Twitter" class="illustrations_image">
<style type="text/css">
	.st0_twitter-66{fill:#231F20;}
	.st1_twitter-66{fill:#FFFFFF;}
	.st2_twitter-66{fill:#D1D3D4;}
	.st3_twitter-66{fill:#68E1FD;}
</style>
<g id="Character_twitter-66">
	<path class="st0_twitter-66" d="M63.1,332.5v19.4c0,0,0.3,1.3,2.4,2.2s235.2,55.6,273.5,60.6c3.1,0.2,6.2-0.6,8.8-2.2&#10;&#9;&#9;c13.8-11.2,55-53.7,61.9-60.8c0.6-0.7,1-1.5,1-2.4l0.3-27.3L63.1,332.5z"/>
	<path class="st0_twitter-66" d="M340.2,415.4c-0.4,0-0.8,0-1.2-0.1c-41.1-5.4-272.9-60.3-273.7-60.6c-2.3-1-2.8-2.5-2.8-2.6c0-0.1,0-0.1,0-0.2&#10;&#9;&#9;v-19.4c0-0.4,0.3-0.7,0.7-0.7L411,321.2c0.2,0,0.4,0.1,0.5,0.2c0.1,0.1,0.2,0.3,0.2,0.5l-0.3,27.3c0,1.1-0.4,2.1-1.2,2.9&#10;&#9;&#9;c-7.9,8.2-48.2,49.8-62,60.8C345.8,414.5,343,415.4,340.2,415.4L340.2,415.4z M63.8,351.8c0.4,0.8,1.1,1.4,2,1.6&#10;&#9;&#9;c1.1,0.4,233.8,55.4,273.4,60.5c2.9,0.2,5.8-0.5,8.2-2.1c13.7-11,53.9-52.5,61.8-60.7c0.5-0.5,0.8-1.3,0.8-2l0.3-26.6L63.8,333.2&#10;&#9;&#9;L63.8,351.8L63.8,351.8z"/>
	<path class="st1_twitter-66" d="M410.2,323.1l-61.7,63.4c-2.8,2.8-9.7,4.2-15.4,3L68,336.6c-5.2-1-6.4-3.9-2.7-6.4l83.5-55.7&#10;&#9;&#9;c3.1-2,9.4-3,14.2-2.1l241.8,44.8C410,318.2,412.5,320.8,410.2,323.1L410.2,323.1z"/>
	<path class="st0_twitter-66" d="M337.4,390.7c-1.5,0-2.9-0.1-4.4-0.4l-265.1-53c-3.1-0.6-5-1.9-5.4-3.6c-0.2-0.8-0.1-2.4,2.4-4l83.5-55.7&#10;&#9;&#9;c3.2-2.2,9.7-3.1,14.7-2.2L405,316.5c3.6,0.7,6.1,2.1,6.7,4c0.3,1.1,0,2.3-0.9,3.1l0,0L349,387&#10;&#9;&#9;C346.8,389.3,342.1,390.7,337.4,390.7L337.4,390.7z M159.1,272.8c-3.8,0-7.7,0.9-9.9,2.3l-83.5,55.7c-1.3,0.9-2,1.8-1.8,2.6&#10;&#9;&#9;c0.2,1.1,1.8,2,4.3,2.5l265.1,53c5.4,1.1,12.2-0.2,14.8-2.9l61.7-63.4l0.5,0.5l-0.5-0.5c0.5-0.4,0.7-1.1,0.6-1.7&#10;&#9;&#9;c-0.4-1.3-2.6-2.5-5.6-3l-241.8-44.8C161.6,272.9,160.4,272.8,159.1,272.8L159.1,272.8z"/>
	<path class="st2_twitter-66" d="M302,376.2h-0.1l-207.1-42c-0.3-0.1-0.5-0.3-0.6-0.5c-0.1-0.3,0.1-0.6,0.3-0.7l76.7-53&#10;&#9;&#9;c0.2-0.1,0.3-0.2,0.5-0.1l195.2,36.8c0.3,0,0.5,0.2,0.5,0.5c0.1,0.3,0,0.5-0.2,0.7L302.4,376C302.3,376.1,302.1,376.2,302,376.2&#10;&#9;&#9;L302,376.2z M96.7,333.1l205.1,41.6l63.5-57.1l-193.5-36.5L96.7,333.1L96.7,333.1z"/>
	<path class="st1_twitter-66" d="M377.4,345.4l-12.2,12.3c-1.6,1.6-5.6,2.4-9,1.7l-10.2-2c-3.4-0.7-4.8-2.5-3.2-4l12.5-12.2&#10;&#9;&#9;c1.6-1.5,5.5-2.2,8.8-1.6l9.9,1.9C377.5,342.1,379,343.9,377.4,345.4L377.4,345.4z"/>
	<path class="st2_twitter-66" d="M358.8,360.4c-0.9,0-1.8-0.1-2.7-0.2l-10.2-2c-2.4-0.5-3.9-1.5-4.3-2.8c-0.2-0.9,0.1-1.9,0.8-2.5l12.5-12.2&#10;&#9;&#9;c1.7-1.7,5.9-2.5,9.4-1.8l9.9,1.9c2.4,0.5,3.9,1.4,4.3,2.7c0.2,0.9,0,1.8-0.7,2.4l0,0l-12.2,12.3&#10;&#9;&#9;C364.4,359.5,361.7,360.3,358.8,360.4L358.8,360.4z M361.7,340.1c-2.4,0-4.8,0.6-5.8,1.6l-12.5,12.2c-0.3,0.2-0.5,0.7-0.4,1.1&#10;&#9;&#9;c0.2,0.6,1.1,1.4,3.2,1.8l10.2,2c3.1,0.6,7-0.1,8.4-1.5l12.2-12.3c0.5-0.5,0.4-0.9,0.4-1c-0.2-0.6-1.1-1.4-3.3-1.8l-9.9-1.9&#10;&#9;&#9;C363.3,340.2,362.5,340.1,361.7,340.1L361.7,340.1z M377.4,345.4L377.4,345.4z"/>
	<path class="st2_twitter-66" d="M105.4,314.9c-0.2,0-0.4-0.1-0.6-0.3c-0.2-0.3-0.2-0.7,0.1-1c0,0,0,0,0.1,0l24.3-16.5c0.3-0.2,0.8-0.1,1,0.2&#10;&#9;&#9;c0.2,0.3,0.1,0.7-0.2,0.9l-24.3,16.5C105.7,314.8,105.5,314.9,105.4,314.9z"/>
	<path class="st2_twitter-66" d="M133,296.2c-0.2,0-0.4-0.1-0.6-0.3c-0.2-0.3-0.2-0.7,0.1-1c0,0,0,0,0.1,0l3.1-2.1c0.3-0.2,0.8-0.1,1,0.2&#10;&#9;&#9;c0.2,0.3,0.1,0.7-0.2,0.9l-3.1,2.1C133.3,296.1,133.1,296.1,133,296.2L133,296.2z"/>
</g>
<ellipse id="Shadow_twitter-66" class="st2_twitter-66" cx="237.1" cy="329.4" rx="58" ry="11.4"/>
<g id="Twitter_Bird_twitter-66">
	<path class="st3_twitter-66 targetColor" d="M263.3,213.2c0,0,43.2-22,51.2-13.3s-46.4,50.4-46.4,50.4L263.3,213.2L263.3,213.2z" style="fill: rgb(255, 56, 116);"/>
	<path class="st0_twitter-66" d="M191.8,324.4c-1.1,0-2-0.8-2.1-1.9l-1.9-24.1c-0.1-1.2,0.8-2.2,1.9-2.3c0,0,0,0,0,0c1.2-0.1,2.2,0.8,2.3,1.9&#10;&#9;&#9;l1.9,24.1c0.1,1.2-0.8,2.2-1.9,2.3c0,0,0,0,0,0L191.8,324.4L191.8,324.4z"/>
	<path class="st0_twitter-66" d="M214.8,331.5c-0.4,0-0.7-0.1-1.1-0.3c-19.9-11.7-32.7-4.6-33.3-4.3c-1,0.5-2.3,0.1-2.8-0.9&#10;&#9;&#9;c-0.5-1-0.2-2.1,0.7-2.7c0.6-0.4,15.4-8.7,37.5,4.3c1,0.6,1.3,1.9,0.7,2.9C216.2,331.2,215.5,331.6,214.8,331.5L214.8,331.5z"/>
	<path class="st0_twitter-66" d="M208.7,338.1c-0.7,0-1.4-0.4-1.8-1c-8.4-13.4-18.6-12.3-19.1-12.2c-1.1,0.1-2.2-0.7-2.4-1.8&#10;&#9;&#9;c-0.2-1.1,0.6-2.2,1.8-2.4c0.5-0.1,13.2-1.6,23.2,14.1c0.6,1,0.3,2.3-0.7,2.9C209.5,338,209.1,338.1,208.7,338.1L208.7,338.1z"/>
	<path class="st0_twitter-66" d="M297.6,285c-0.4,0-0.8-0.1-1.1-0.3L276,271.9c-1-0.7-1.2-2-0.5-2.9c0.6-0.9,1.8-1.2,2.8-0.6l20.5,12.8&#10;&#9;&#9;c1,0.6,1.3,1.9,0.7,2.9C299,284.6,298.4,285,297.6,285L297.6,285z"/>
	<path class="st0_twitter-66" d="M292.5,296.7h-0.2c-1.1-0.1-2-1.1-1.9-2.3c0,0,0,0,0,0c0.1-0.7,2.1-17.6,25.7-27.6c1.1-0.5,2.3,0,2.8,1.1&#10;&#9;&#9;s0,2.3-1.1,2.8c-21.4,9.1-23.2,24.1-23.2,24.2C294.5,295.9,293.6,296.7,292.5,296.7L292.5,296.7z"/>
	<path class="st0_twitter-66" d="M295.5,288.7c-1.2,0-2.1-0.9-2.1-2.1c0-0.4,0.1-0.7,0.3-1c0.3-0.5,6.6-11.6,25.1-10.3c1.2,0.1,2,1.1,1.9,2.2&#10;&#9;&#9;s-1.1,2-2.2,1.9c-15.9-1.1-21.1,8-21.1,8.1C297,288.3,296.3,288.7,295.5,288.7L295.5,288.7z"/>
	<path class="st3_twitter-66 targetColor" d="M290.9,219.4c0.4,5.1,0.3,10.1-0.3,15.2c-0.2,1.4-0.4,2.9-0.6,4.3c-4.9,27.5-26.2,60.1-78.2,69.3&#10;&#9;&#9;c-9.8,1.7-19.9,1.9-29.8,0.7c-14.6-1.7-28.6-6.4-39.6-13.6c-27-17.6-41.9-34.4-39.1-39.4s23.9,2.9,30.4-2.4&#10;&#9;&#9;c3.3-2.7,4.1-10.6,4.2-17.8c-0.2-1.4-0.4-2.9-0.5-4.3c-0.2-3-0.3-6-0.2-8.9v-0.1c1.5-38.5,26.9-71.2,65.3-80.4&#10;&#9;&#9;C259.8,128.4,287.5,177.1,290.9,219.4z" style="fill: rgb(255, 56, 116);"/>
	<path class="st0_twitter-66" d="M253.5,159.1c1.7,4.7,2.9,9.6,3.8,14.6c2.1,11.9,2.1,16.8,2.1,16.8l26.8,17.7c0,0-48.4,0.7-52.6-5.4&#10;&#9;&#9;S253.5,159.1,253.5,159.1L253.5,159.1z"/>
	<path class="st0_twitter-66" d="M281,208.9c-13.1,0-44.3-0.6-47.9-5.8c-4.3-6.3,17.4-40.5,19.9-44.4c0.1-0.2,0.4-0.3,0.7-0.3&#10;&#9;&#9;c0.3,0,0.5,0.2,0.6,0.4c1.7,4.8,2.9,9.7,3.8,14.7c1.1,5.5,1.8,11,2.1,16.5l26.5,17.5c0.3,0.2,0.4,0.5,0.3,0.8&#10;&#9;&#9;c-0.1,0.3-0.4,0.5-0.7,0.5C285.5,208.8,283.6,208.8,281,208.9L281,208.9z M253.4,160.7c-9.5,15-21.9,37.5-19.1,41.6&#10;&#9;&#9;s30.5,5.3,49.8,5.1l-25-16.4c-0.2-0.1-0.3-0.3-0.3-0.6c0-0.1-0.1-5-2.1-16.6C255.9,169.3,254.8,164.9,253.4,160.7L253.4,160.7z"/>
	<path class="st1_twitter-66" d="M286.3,208.1c0,0-26.9,8.6-46.2,8.7c-7.4,0.1-15.5-10.7-14.6-17.8c2.1-15.5,22.9-37.3,28.1-39.9&#10;&#9;&#9;c0,0-11.6,27.6-13,39.7C240.5,198.8,273.5,209.1,286.3,208.1L286.3,208.1z"/>
	<path class="st0_twitter-66" d="M240,217.5c-3.3,0-7-2-10.1-5.6c-3.6-4.1-5.6-9.2-5.1-13c2.1-15.8,23.3-37.8,28.4-40.5&#10;&#9;&#9;c0.3-0.1,0.6-0.1,0.8,0.1c0.2,0.2,0.3,0.5,0.2,0.8c-0.1,0.3-11.2,26.8-12.9,39c4.4,1.3,33.3,10,45,9.1c0.4,0,0.7,0.3,0.7,0.7&#10;&#9;&#9;c0,0.3-0.2,0.6-0.5,0.7C286.3,208.9,259.3,217.4,240,217.5L240,217.5L240,217.5z M252,161c-7,5.4-24,24.2-25.8,38.2&#10;&#9;&#9;c-0.5,3.4,1.4,8.1,4.8,11.9c2.9,3.2,6.2,5.1,9.1,5.1l0,0c14.4-0.1,33.1-4.9,41.6-7.3c-14.6-1-40.1-8.9-41.3-9.3&#10;&#9;&#9;c-0.3-0.1-0.5-0.4-0.5-0.8C240.9,188.5,249.2,167.8,252,161L252,161z"/>
	<path class="st1_twitter-66" d="M289.9,238.9c-4.9,27.5-26.2,60.1-78.2,69.3c-9.8,1.7-19.9,1.9-29.8,0.7c-0.3-1.7-0.5-3.5-0.6-5.3&#10;&#9;&#9;c-3.1-38.8,25.9-72.8,64.7-75.8C261.5,226.6,277,230.5,289.9,238.9L289.9,238.9z"/>
	<path class="st3_twitter-66 targetColor" d="M155.9,240.7c-19.1-2.2-65.2-31.8-63.9-41.1s81.8,1.5,81.8,1.5" style="fill: rgb(255, 56, 116);"/>
	<path class="st0_twitter-66" d="M166.8,200.9L166.8,200.9l-44-4.1c-0.4,0-0.7-0.4-0.6-0.8c0-0.4,0.4-0.7,0.8-0.6l43.9,4.1&#10;&#9;&#9;c0.4,0,0.7,0.4,0.6,0.8C167.4,200.6,167.1,200.9,166.8,200.9L166.8,200.9z"/>
	<path class="st0_twitter-66" d="M159.5,245.6h-0.1c-15.2-2.4-55.4-30.7-57.1-31.9c-0.3-0.2-0.4-0.7-0.2-1s0.7-0.4,1-0.2l0,0&#10;&#9;&#9;c0.4,0.3,41.6,29.3,56.5,31.6c0.4,0.1,0.6,0.4,0.6,0.8C160.2,245.4,159.9,245.6,159.5,245.6z"/>
	<path class="st0_twitter-66" d="M202.5,310c-0.3,0-0.6-0.3-0.7-0.6c-0.1-0.4,0.2-0.7,0.6-0.8c27.7-4.2,64.2-16.2,80.4-50&#10;&#9;&#9;c5.8-12.2,8.4-25.6,7.4-39.1c0-0.4,0.2-0.7,0.6-0.8c0,0,0,0,0,0c0.4,0,0.7,0.2,0.8,0.6c1,13.7-1.6,27.4-7.6,39.8&#10;&#9;&#9;C274.9,278.2,253.4,302.4,202.5,310L202.5,310L202.5,310z"/>
	<path class="st1_twitter-66" d="M275.9,186.2c0,0-0.3,7.5,3.1,10.6s14.3,3.1,15,4.2s14.9,29.6,16.8,31.2s8.8-1.7,13.7-7.2&#10;&#9;&#9;c0,0-14.5-26.3-15.1-28.6s2.5-12.8,2.1-17.4L275.9,186.2z"/>
	<path class="st0_twitter-66" d="M312.1,233.2c-0.6,0-1.3-0.2-1.8-0.6c-1.3-1.1-7.1-12.3-13.4-24.7c-1.7-3.4-3.2-6.3-3.4-6.6&#10;&#9;&#9;c-1.2-0.3-2.5-0.5-3.7-0.7c-3.7-0.6-8.8-1.3-11.1-3.4c-3.6-3.2-3.4-10.8-3.3-11.1c0-0.3,0.2-0.6,0.6-0.6l35.5-7.2&#10;&#9;&#9;c0.2,0,0.4,0,0.6,0.1c0.2,0.1,0.3,0.3,0.3,0.5c0.2,2.5-0.5,6.5-1.2,10.1c-0.6,3-1.2,6.2-0.9,7.1c0.5,1.6,9.3,17.9,15.1,28.5&#10;&#9;&#9;c0.1,0.3,0.1,0.6-0.1,0.8C320.9,230,315.3,233.2,312.1,233.2L312.1,233.2z M276.6,186.8c0,1.7,0.2,7.1,2.9,9.5&#10;&#9;&#9;c2,1.8,6.9,2.5,10.4,3c3,0.4,4.3,0.6,4.7,1.3c0.2,0.3,1.3,2.4,3.5,6.8c3.9,7.6,11.9,23.3,13.1,24.3s7.5-1.5,12.4-6.8&#10;&#9;&#9;c-2.3-4.2-14.4-26.1-15-28.4c-0.3-1.2,0.1-3.7,0.9-7.8c0.6-2.9,1.1-5.9,1.2-8.9L276.6,186.8L276.6,186.8z"/>
	<path class="st0_twitter-66" d="M307.4,184.1c-1,1.5-1.5,3.3-1.5,5.2c0.1,2.9,4.1,8.6,4.1,8.6l7.8-5.8l-4.8-9.3L307.4,184.1L307.4,184.1z"/>
	<path class="st0_twitter-66" d="M310,198.6h-0.1c-0.2,0-0.4-0.1-0.5-0.3c-0.2-0.2-4.1-6-4.3-9c0-2,0.5-3.9,1.6-5.6c0.1-0.1,0.3-0.2,0.4-0.3&#10;&#9;&#9;l5.6-1.3c0.3-0.1,0.6,0.1,0.8,0.4l4.8,9.2c0.2,0.3,0.1,0.7-0.2,0.9l-7.8,5.8C310.3,198.6,310.2,198.6,310,198.6L310,198.6z&#10;&#9;&#9; M307.8,184.7c-0.8,1.4-1.3,2.9-1.2,4.5c0.1,1.9,2.4,5.8,3.6,7.7l6.7-5l-4.3-8.2L307.8,184.7L307.8,184.7z"/>
	<path class="st1_twitter-66" d="M353.5,197.7c0,0-24.3-15.5-37.9-14.7c-3.4,0.2-6.8,0.7-10.2,1.4c-7.9,1.6-15.8,3.9-21.4,4.6&#10;&#9;&#9;c-11,1.3-19.6-1.5-20.6-13.1c-0.8-9.9,3.7-12.1,13.3-15.6c4.8-1.8,14-3.9,22.7-7.1c5.3-2,10.4-4.3,14.1-7.2&#10;&#9;&#9;c9.8-7.6,16.2-23.6,16.2-23.6L353.5,197.7L353.5,197.7z"/>
	<path class="st0_twitter-66" d="M353.5,198.4c-0.1,0-0.3,0-0.4-0.1c-0.2-0.1-24.3-15.3-37.5-14.6c-3.4,0.2-6.8,0.7-10.1,1.4&#10;&#9;&#9;c-3.2,0.6-6.5,1.4-9.6,2.2c-3.9,1-7.9,1.8-11.8,2.4c-7.3,0.9-12.8-0.1-16.4-3.1c-2.9-2.4-4.5-5.9-5-10.6&#10;&#9;&#9;c-0.9-10.4,4.1-12.8,13.8-16.3c2-0.7,4.8-1.6,8.1-2.5c4.5-1.3,9.6-2.8,14.6-4.6c6.1-2.3,10.7-4.6,13.9-7.1&#10;&#9;&#9;c9.5-7.4,15.9-23.2,16-23.3c0.1-0.3,0.4-0.5,0.7-0.4c0.3,0,0.6,0.2,0.6,0.5l23.7,75.2c0.1,0.4-0.1,0.8-0.4,0.9&#10;&#9;&#9;C353.8,198.4,353.7,198.4,353.5,198.4L353.5,198.4z M316.7,182.3c11.8,0,30.1,10.5,35.6,13.8l-22.6-71.7c-2,4.4-7.7,15.9-15.7,22.2&#10;&#9;&#9;c-3.3,2.6-8,5-14.2,7.3c-5,1.9-10.2,3.4-14.7,4.6c-3.2,0.9-6,1.7-8,2.5c-9.5,3.5-13.6,5.4-12.9,14.9c0.4,4.3,1.9,7.6,4.4,9.7&#10;&#9;&#9;c3.3,2.7,8.5,3.6,15.4,2.8c3.9-0.6,7.8-1.4,11.7-2.4c3.1-0.8,6.4-1.5,9.6-2.2c3.4-0.7,6.8-1.2,10.3-1.4&#10;&#9;&#9;C316,182.3,316.3,182.3,316.7,182.3z"/>
	<path class="st0_twitter-66" d="M307.4,184.1c-7.9,1.6-17.8,4-23.3,5c-12.6,2.2-18.7,0-20.4-11.4c-1.8-11.8,3.5-13.7,13.2-17.2&#10;&#9;&#9;c4.8-1.8,14-3.9,22.7-7.1c0,0-2.8,6.5-0.4,17.3C300.3,175.9,303.2,180.7,307.4,184.1L307.4,184.1z"/>
	<path class="st0_twitter-66" d="M276.6,190.5c-3.7,0-6.4-0.7-8.5-2.2c-2.8-2-4.5-5.4-5.2-10.6c-1.8-12.3,4-14.4,13.5-17.9&#10;&#9;&#9;c2.1-0.8,5-1.6,8.2-2.5c4.5-1.3,9.6-2.8,14.6-4.6c0.3-0.1,0.6,0,0.8,0.2c0.2,0.2,0.2,0.5,0.1,0.8c0,0.1-2.7,6.4-0.4,16.9&#10;&#9;&#9;c1.1,5.1,4,9.7,8,13.1c0.2,0.2,0.3,0.4,0.3,0.7c-0.1,0.3-0.3,0.5-0.5,0.5c-3.6,0.7-7.7,1.6-11.6,2.5c-4.5,1-8.7,1.9-11.7,2.5&#10;&#9;&#9;C281.7,190.2,279.2,190.5,276.6,190.5L276.6,190.5z M298.4,154.4c-4.6,1.6-9.2,3-13.4,4.2c-3.2,0.9-6,1.7-8,2.5&#10;&#9;&#9;c-9.6,3.5-14.4,5.3-12.7,16.5c0.7,4.8,2.2,7.9,4.7,9.6c3,2.1,7.6,2.5,15,1.2c3-0.5,7.2-1.5,11.7-2.5c3.4-0.8,6.9-1.5,10.2-2.2&#10;&#9;&#9;c-3.7-3.5-6.3-8-7.4-13C296.7,162.6,297.8,156.9,298.4,154.4L298.4,154.4z"/>
	<path class="st1_twitter-66" d="M361.8,199.1c-8.4,2.2-18.8-8.4-26-25.2c-3.6-8.5-6-17.5-7.2-26.7c-2.3-18.2,1.4-32.8,9.8-35.1&#10;&#9;&#9;c10.4-2.8,24.1,14.4,30.5,38.4S372.2,196.3,361.8,199.1L361.8,199.1z"/>
	<path class="st0_twitter-66" d="M359.5,200.1c-8.1,0-17.6-9.9-24.4-25.9c-3.6-8.6-6.1-17.6-7.3-26.9c-2.4-19.1,1.7-33.5,10.3-35.8&#10;&#9;&#9;c5.3-1.4,11.5,1.9,17.5,9.4c5.8,7.3,10.8,17.8,13.9,29.5s4.1,23.2,2.8,32.5c-1.4,9.5-5.1,15.5-10.4,16.9l0,0&#10;&#9;&#9;C361.1,200,360.3,200.1,359.5,200.1L359.5,200.1z M340.6,112.6c-0.7,0-1.4,0.1-2.1,0.3c-7.8,2.1-11.6,16.2-9.3,34.3&#10;&#9;&#9;c0.6,4.5,1.5,9,2.6,13.4c1.2,4.5,2.7,8.9,4.5,13.1c7.1,16.7,17.5,26.9,25.2,24.8l0,0c4.7-1.3,8.1-6.9,9.4-15.8&#10;&#9;&#9;c1.3-9.1,0.4-20.4-2.8-31.9s-8-21.8-13.7-29C349.8,115.8,344.9,112.6,340.6,112.6L340.6,112.6z"/>
	<path class="st0_twitter-66" d="M352.5,166.3l-16.7,7.7c-3.6-8.5-6-17.5-7.2-26.7l19.4-1.6L352.5,166.3L352.5,166.3z"/>
	<path class="st0_twitter-66" d="M335.8,174.7c-0.1,0-0.2,0-0.2,0c-0.2-0.1-0.3-0.2-0.4-0.4c-3.6-8.6-6.1-17.6-7.3-26.9&#10;&#9;&#9;c-0.1-0.4,0.2-0.7,0.6-0.8c0,0,0,0,0,0l19.4-1.6c0.4,0,0.7,0.2,0.7,0.6l4.5,20.6c0.1,0.3-0.1,0.6-0.4,0.8l-16.7,7.6&#10;&#9;&#9;C336,174.7,335.9,174.7,335.8,174.7L335.8,174.7z M329.3,147.9c1.2,8.6,3.5,17,6.8,25.1l15.5-7.1l-4.3-19.5L329.3,147.9&#10;&#9;&#9;L329.3,147.9z"/>
	<ellipse transform="matrix(0.976 -0.218 0.218 0.976 -25.5834 80.0816)" class="st1_twitter-66" cx="350.2" cy="156" rx="4.9" ry="10.6"/>
	<path class="st0_twitter-66" d="M352,167.1c-2.9,0-6-4.1-7.3-9.8c-0.6-2.6-0.7-5.3-0.2-7.9c0.5-2.4,1.7-4,3.2-4.3s3.3,0.5,4.8,2.5&#10;&#9;&#9;c1.5,2.2,2.6,4.6,3.2,7.2l0,0c1.4,6.2,0,11.5-3,12.2C352.5,167,352.2,167.1,352,167.1L352,167.1z M348.4,146.4c-0.1,0-0.2,0-0.4,0&#10;&#9;&#9;c-1,0.2-1.8,1.4-2.2,3.2c-0.4,2.4-0.4,4.9,0.2,7.3c1.3,5.7,4.3,9.1,6.3,8.7s3.2-4.9,2-10.5l0,0c-0.5-2.4-1.5-4.7-2.9-6.7&#10;&#9;&#9;C350.4,147,349.4,146.4,348.4,146.4L348.4,146.4z"/>
	<path class="st1_twitter-66" d="M281.2,162.1c-0.4,0-0.7-0.3-0.7-0.7c0-0.3,0.2-0.6,0.5-0.7l12.1-3.4c0.4-0.1,0.7,0.1,0.9,0.5c0,0,0,0,0,0&#10;&#9;&#9;c0.1,0.4-0.1,0.8-0.5,0.9l-12.1,3.4C281.3,162.1,281.2,162.1,281.2,162.1L281.2,162.1z"/>
	<path class="st1_twitter-66" d="M281.4,164.5c-0.4,0-0.7-0.3-0.7-0.7c0-0.3,0.2-0.6,0.5-0.7l12.1-3.4c0.4-0.1,0.7,0.2,0.8,0.6&#10;&#9;&#9;c0.1,0.3-0.1,0.7-0.4,0.8l-12.1,3.4C281.5,164.5,281.4,164.5,281.4,164.5L281.4,164.5z"/>
	<path class="st1_twitter-66" d="M281.6,167.3c-0.4,0-0.7-0.3-0.7-0.7c0-0.3,0.2-0.6,0.5-0.7l12.1-3.4c0.4-0.1,0.7,0.2,0.8,0.6&#10;&#9;&#9;c0.1,0.3-0.1,0.7-0.4,0.8l-12.1,3.4C281.7,167.3,281.7,167.3,281.6,167.3L281.6,167.3z"/>
	
		<ellipse transform="matrix(0.8819 -0.4715 0.4715 0.8819 -58.3472 120.242)" class="st0_twitter-66" cx="210.8" cy="176.6" rx="4.3" ry="7.2"/>
	<ellipse transform="matrix(0.8245 -0.5658 0.5658 0.8245 -52.0704 160.126)" class="st0_twitter-66" cx="232.1" cy="164" rx="4.3" ry="7.2"/>
</g>
<g id="Tweets_twitter-66">
	<path class="st3_twitter-66 targetColor" d="M357.8,157.4c2.5-0.4,5-1.1,7.3-2.1c2.2-1,4.3-2.2,6.1-3.6c-6.3-0.6-10.3-3.6-12.6-9.4c2,0.1,3.9,0.4,5.9-0.4&#10;&#9;&#9;c-3-0.7-5.8-2.4-7.7-4.8c-1.9-2.4-3-5.4-2.9-8.4c1.9,0.7,3.7,1.5,5.8,1.4c-6-5.7-7.4-12.2-3.9-18c2.4,2.7,5.1,5.2,8,7.3&#10;&#9;&#9;c5.6,3.8,12.1,6.1,18.8,6.8c1.2,0.1,1-0.5,0.9-1.2c-1-7.3,4-14.1,11.3-15.2c1.4,0.2,2.8,0.2,4.1,0c2.7,0.4,5.1,1.5,7.1,3.4&#10;&#9;&#9;c0.5,0.5,1.3,0.7,2,0.4c2.4-0.6,4.7-1.5,6.9-2.7c0,1.9-1.6,4.2-5.1,7c1,0,2.1-0.2,3-0.5c1-0.3,1.9-0.6,2.8-0.8&#10;&#9;&#9;c0.3-0.1,0.6-0.5,0.9-0.1s-0.2,0.6-0.4,0.8c-1.3,1.8-2.9,3.4-4.6,4.8c-0.7,0.5-1,1.3-1,2.1c-0.5,15.5-7,27.7-21,35.1&#10;&#9;&#9;c-11.6,6.2-25.9,5.4-38.1-1.8h3.6C356.1,157.6,357,157.6,357.8,157.4L357.8,157.4z" style="fill: rgb(255, 56, 116);"/>
	<path class="st3_twitter-66 targetColor" d="M394.3,184.9c1.2,0.9,2.5,1.6,3.9,2.2c1.3,0.5,2.7,0.9,4.1,1.1c-2.3-2.5-2.8-6.2-1.3-9.2&#10;&#9;&#9;c0.7,1,1.6,1.8,2.6,2.3c-1-1.6-1.4-3.4-1.1-5.2c0.2-1.8,1-3.5,2.4-4.7c0.4,1.1,1,2.1,1.8,3c-0.1-4.9,2.1-8.1,6-9.1&#10;&#9;&#9;c-0.2,2.1-0.1,4.3,0.2,6.4c0.7,3.9,2.4,7.6,4.9,10.7c0.4,0.6,0.6,0.2,0.9-0.1c2.7-3.5,7.6-4.1,11.1-1.5c0.5,0.6,1.1,1.2,1.7,1.7&#10;&#9;&#9;c1,1.3,1.5,2.8,1.5,4.5c0,0.4,0.2,0.8,0.6,1c1.3,0.7,2.6,1.3,4,1.8c-0.8,0.8-2.4,1.1-5.1,0.8c0.4,0.4,0.9,0.8,1.5,1.1&#10;&#9;&#9;c0.5,0.3,1,0.5,1.5,0.9c0.1,0.1,0.5,0.1,0.4,0.4s-0.3,0.2-0.5,0.2c-1.3,0.2-2.6,0.2-3.9,0c-0.5-0.1-1,0.1-1.3,0.4&#10;&#9;&#9;c-6.8,6.2-14.6,8.5-23.5,5.7c-7.4-2.3-13-8.7-15-16.8l1.5,1.5C393.5,184.3,393.9,184.6,394.3,184.9L394.3,184.9z" style="fill: rgb(255, 56, 116);"/>
	<path class="st3_twitter-66 targetColor" d="M361.7,221.9c1.1,1.4,2.3,2.6,3.7,3.8c1.3,1,2.7,1.9,4.2,2.5c-1.8-3.5-1.2-7.8,1.5-10.8&#10;&#9;&#9;c0.5,1.3,1.2,2.5,2.2,3.5c-0.6-2.1-0.5-4.3,0.4-6.3c0.8-2,2.3-3.6,4.1-4.6c0.1,1.4,0.4,2.7,1,4c1.5-5.5,4.9-8.5,9.6-8.3&#10;&#9;&#9;c-0.8,2.3-1.4,4.8-1.7,7.2c-0.4,4.7,0.3,9.4,2.2,13.6c0.3,0.8,0.7,0.5,1,0.2c4.1-3.1,9.9-2.3,13,1.8c0.4,0.9,0.8,1.7,1.4,2.5&#10;&#9;&#9;c0.7,1.7,0.8,3.6,0.3,5.4c-0.2,0.5,0,1,0.4,1.3c1.2,1.2,2.5,2.3,3.9,3.3c-1.1,0.7-3.1,0.4-6-0.8c0.4,0.6,0.8,1.2,1.3,1.7&#10;&#9;&#9;c0.5,0.5,1,0.9,1.4,1.4c0.1,0.1,0.5,0.2,0.4,0.5s-0.4,0.1-0.6,0c-1.5-0.2-3-0.6-4.4-1.2c-0.5-0.3-1.1-0.2-1.6,0.1&#10;&#9;&#9;c-9.6,4.8-19.1,4.9-28.2-1c-7.6-5-11.9-13.9-11.6-23.6c0.5,0.8,0.8,1.5,1.2,2.2C360.9,221,361.2,221.5,361.7,221.9L361.7,221.9z" style="fill: rgb(255, 56, 116);"/>
	<path class="st3_twitter-66 targetColor" d="M370.1,103.8c0.9-0.2,1.8-0.6,2.6-1c0.8-0.4,1.5-1,2.1-1.6c-2.1,0.2-4.1-1-5-2.9c0.7,0,1.5-0.1,2.1-0.4&#10;&#9;&#9;c-1.1-0.1-2.2-0.6-3-1.4c-0.8-0.8-1.3-1.9-1.4-3c0.7,0.2,1.4,0.3,2.2,0.3c-2.4-1.8-3.2-4.1-2.1-6.4c1,0.9,2.1,1.7,3.2,2.3&#10;&#9;&#9;c2.2,1.2,4.6,1.8,7.1,1.7c0.4,0,0.4-0.2,0.3-0.5c-0.4-1.3-0.1-2.8,0.6-3.9c0.7-1,1.7-1.8,2.9-2c0.5,0,1-0.1,1.5-0.2&#10;&#9;&#9;c1,0,1.9,0.4,2.7,1c0.2,0.2,0.5,0.2,0.7,0.1c0.8-0.3,1.7-0.8,2.4-1.3c0.1,0.7-0.4,1.6-1.6,2.8c0.4-0.1,0.8-0.2,1.1-0.4&#10;&#9;&#9;c0.3-0.1,0.7-0.3,1-0.4c0.1,0,0.2-0.2,0.3-0.1s0,0.2-0.1,0.3c-0.4,0.7-0.9,1.4-1.5,1.9c-0.2,0.2-0.3,0.5-0.3,0.8&#10;&#9;&#9;c0.4,5.7-1.5,10.3-6.2,13.6c-4.2,2.7-9.5,3-13.9,0.9l1.3-0.1C369.5,104,369.8,103.9,370.1,103.8L370.1,103.8z" style="fill: rgb(255, 56, 116);"/>
</g>
</svg>