<svg version="1.1" id="Layer_1" xmlns="http://www.w3.org/2000/svg" xmlns:xlink="http://www.w3.org/1999/xlink" x="0px" y="0px" viewBox="0 0 500 500" style="width: 166px;" xml:space="preserve" data-imageid="augmented-reality-3-33" imageName="Augmented Reality 3" class="illustrations_image">
<style type="text/css">
	.st0_augmented-reality-3-33{fill:#231F20;}
	.st1_augmented-reality-3-33{fill:#FFFFFF;}
	.st2_augmented-reality-3-33{fill:#D1D3D4;}
	.st3_augmented-reality-3-33{fill:#68E1FD;}
</style>
<g id="Smartphone_augmented-reality-3-33">
	<path class="st0_augmented-reality-3-33" d="M161.5,73.9h176.9c8.3,0,15,6.7,15,15v322.2c0,8.3-6.7,15-15,15H161.5c-8.3,0-15-6.7-15-15V88.9&#10;&#9;&#9;C146.5,80.6,153.3,73.9,161.5,73.9z"/>
	<path class="st0_augmented-reality-3-33" d="M332.5,426.8h-165c-12,0-21.7-9.7-21.7-21.7V94.9c0-12,9.7-21.7,21.7-21.7h165c12,0,21.7,9.7,21.7,21.7v310.2&#10;&#9;&#9;C354.1,417.1,344.4,426.8,332.5,426.8z M167.5,74.6c-11.2,0-20.2,9.1-20.3,20.3v310.2c0,11.2,9.1,20.3,20.3,20.3h165&#10;&#9;&#9;c11.2,0,20.3-9.1,20.3-20.3V94.9c0-11.2-9.1-20.3-20.3-20.3L167.5,74.6z"/>
	<path class="st1_augmented-reality-3-33" d="M167.1,102.3h166.6c8.5,0,15.4,6.9,15.4,15.4v279.9c0,8.5-6.9,15.4-15.4,15.4H167.1c-8.5,0-15.4-6.9-15.4-15.4&#10;&#9;&#9;V117.7C151.7,109.2,158.6,102.3,167.1,102.3z"/>
	<path class="st0_augmented-reality-3-33" d="M333.6,413.7H167.3c-9,0-16.3-7.3-16.3-16.3V117.9c0-9,7.3-16.3,16.3-16.3h166.3c9,0,16.3,7.3,16.3,16.3v279.5&#10;&#9;&#9;C349.9,406.4,342.6,413.7,333.6,413.7z M167.3,103c-8.2,0-14.9,6.7-14.9,14.9v279.5c0,8.2,6.7,14.9,14.9,14.9h166.3&#10;&#9;&#9;c8.2,0,14.9-6.7,14.9-14.9V117.9c0-8.2-6.7-14.9-14.9-14.9L167.3,103z"/>
	<path class="st0_augmented-reality-3-33" d="M349.2,361.7H151.7c-0.4,0-0.7-0.3-0.7-0.7c0-0.4,0.3-0.7,0.7-0.7h197.5c0.4,0,0.7,0.3,0.7,0.7&#10;&#9;&#9;S349.6,361.7,349.2,361.7C349.2,361.7,349.2,361.7,349.2,361.7z"/>
	<path class="st2_augmented-reality-3-33" d="M293.3,94.3c-3.3,0-6-2.7-6-6s2.7-6,6-6s6,2.7,6,6S296.6,94.3,293.3,94.3z M293.3,83.7c-2.5,0-4.6,2.1-4.6,4.6&#10;&#9;&#9;c0,2.5,2.1,4.6,4.6,4.6c2.5,0,4.6-2.1,4.6-4.6C297.9,85.8,295.8,83.7,293.3,83.7L293.3,83.7z"/>
	<path class="st2_augmented-reality-3-33" d="M313.6,92.8c-2.5,0-4.4-2-4.4-4.5s2-4.4,4.5-4.4s4.4,2,4.4,4.5S316.1,92.8,313.6,92.8L313.6,92.8z M313.6,85.3&#10;&#9;&#9;c-1.7,0-3,1.3-3,3s1.3,3,3,3s3-1.3,3-3S315.3,85.3,313.6,85.3z"/>
	<path class="st2_augmented-reality-3-33" d="M269.5,89h-35.2c-0.4,0-0.7-0.3-0.7-0.7c0-0.4,0.3-0.7,0.7-0.7h35.2c0.4,0,0.7,0.3,0.7,0.7&#10;&#9;&#9;C270.2,88.7,269.9,89,269.5,89z"/>
	<path class="st2_augmented-reality-3-33" d="M210.5,89h-14.3c-0.4,0-0.7-0.3-0.7-0.7c0-0.4,0.3-0.7,0.7-0.7h14.3c0.4,0,0.7,0.3,0.7,0.7&#10;&#9;&#9;C211.2,88.7,210.9,89,210.5,89z"/>
</g>
<ellipse id="Shadow_augmented-reality-3-33" class="st2_augmented-reality-3-33" cx="253.4" cy="395.2" rx="40.8" ry="7.9"/>
<g id="Character_augmented-reality-3-33">
	<path class="st1_augmented-reality-3-33" d="M229.5,382.5c0,0-14.9,12.8-12.9,15s24.4-4.7,25.3-5.6s0.9-9.4,0.9-9.4L229.5,382.5z"/>
	<path class="st0_augmented-reality-3-33" d="M218.5,398.7h-0.3c-0.8,0.1-1.6-0.2-2.2-0.7c-0.3-0.3-0.4-0.7-0.4-1.2c0.2-3.6,12-13.8,13.3-14.9&#10;&#9;&#9;c0.1-0.1,0.3-0.2,0.4-0.2h13.4c0.4,0,0.7,0.3,0.7,0.7l0,0c0,3.3-0.1,8.9-1.2,9.9S224.5,398.7,218.5,398.7z M229.8,383.2&#10;&#9;&#9;c-7.4,6.3-13.3,12.8-12.6,13.9c0.4,0.4,3.4,0.5,12.2-1.8c4.1-1,8.2-2.3,12.1-3.9c0.4-0.5,0.7-4.6,0.7-8.2L229.8,383.2z"/>
	<path class="st1_augmented-reality-3-33" d="M227.4,368.1c0.2,1.2,2.1,14.3,2.1,14.3s6.9,5.5,13.4,0l2.3-21.3L227.4,368.1z"/>
	<path class="st0_augmented-reality-3-33" d="M236.6,385.6c-2.7-0.1-5.3-1-7.5-2.6c-0.1-0.1-0.2-0.3-0.3-0.5c0-0.1-1.9-13.1-2.1-14.3&#10;&#9;&#9;c-0.1-0.3,0.1-0.7,0.4-0.8l17.8-6.9c0.3-0.2,0.8,0,0.9,0.3c0.1,0.1,0.1,0.3,0.1,0.4l-2.3,21.3c0,0.2-0.1,0.3-0.2,0.5&#10;&#9;&#9;C241.5,384.7,239.1,385.6,236.6,385.6z M230.2,382.1c1.2,0.8,6.7,4.4,12.1,0l2.1-19.8l-16.2,6.3&#10;&#9;&#9;C228.6,371.2,229.9,380.3,230.2,382.1z"/>
	<path class="st1_augmented-reality-3-33" d="M280,382.5c0,0,14.9,12.8,12.9,15s-24.4-4.7-25.3-5.6s-1-9.4-1-9.4L280,382.5z"/>
	<path class="st0_augmented-reality-3-33" d="M291,398.7c-5.9,0-22.8-5.2-23.9-6.3s-1.2-6.7-1.2-9.9c0-0.4,0.3-0.7,0.7-0.7h0H280c0.2,0,0.3,0.1,0.5,0.2&#10;&#9;&#9;c1.3,1.1,13.1,11.3,13.3,14.9c0,0.4-0.1,0.8-0.4,1.2c-0.6,0.5-1.4,0.8-2.2,0.7L291,398.7z M267.3,383.2c0,3.6,0.3,7.7,0.8,8.3&#10;&#9;&#9;c3.9,1.6,8,2.9,12.1,3.9c8.8,2.3,11.8,2.2,12.2,1.8c0.6-1.1-5.3-7.5-12.6-13.9H267.3z"/>
	<path class="st1_augmented-reality-3-33" d="M278.9,364.6c-0.2,1.2,1.1,17.9,1.1,17.9s-6.9,5.5-13.4,0l-2.3-21.3L278.9,364.6z"/>
	<path class="st0_augmented-reality-3-33" d="M272.9,385.6c-2.5,0-4.9-0.9-6.8-2.6c-0.1-0.1-0.2-0.3-0.2-0.5l-2.3-21.3c0-0.2,0.1-0.4,0.2-0.6&#10;&#9;&#9;c0.2-0.2,0.4-0.2,0.6-0.2l14.5,3.4c0.4,0.1,0.6,0.4,0.5,0.8c-0.1,0.9,0.6,11.4,1.1,17.7c0,0.2-0.1,0.5-0.3,0.6&#10;&#9;&#9;C278.2,384.6,275.6,385.5,272.9,385.6z M267.3,382.1c5.2,4.2,10.7,1,12,0c-0.3-3.2-1.1-14-1.1-17l-13-3L267.3,382.1z"/>
	<path class="st1_augmented-reality-3-33" d="M276,216.4l22,52.9c0,0-3.3,12.7,2,11.6s4.5-6.7,4.5-6.7s14.8,9.5,18.6,2.5s-14-12.5-14-12.5l-14.7-51.7&#10;&#9;&#9;L276,216.4z"/>
	<path class="st0_augmented-reality-3-33" d="M299.4,281.7c-0.8,0-1.5-0.3-2-0.8c-2.3-2.4-0.6-9.9-0.2-11.5l-21.9-52.7c-0.1-0.4,0-0.8,0.4-0.9&#10;&#9;&#9;c0,0,0.1,0,0.1,0l18.5-3.9c0.4-0.1,0.7,0.1,0.8,0.5l14.6,51.3c2.1,0.7,12.2,4.3,14.3,9.3c0.6,1.4,0.5,2.9-0.3,4.2&#10;&#9;&#9;c-0.7,1.4-2,2.4-3.5,2.7c-4.8,1.2-12.1-2.6-15-4.3c0,3-2.2,5.6-5.1,6.1C299.9,281.7,299.6,281.7,299.4,281.7z M277,216.9l21.6,52.1&#10;&#9;&#9;c0,0.1,0,0.3,0,0.4c-0.8,3.2-1.6,8.9-0.2,10.4c0.4,0.4,0.9,0.5,1.4,0.3c4.6-0.9,4-5.7,4-5.9c-0.1-0.4,0.2-0.7,0.6-0.8&#10;&#9;&#9;c0.2,0,0.3,0,0.5,0.1c0.1,0.1,9.6,6.1,15,4.8c1.1-0.3,2.1-1,2.6-2c0.6-0.9,0.6-2,0.2-3c-2-4.9-13.6-8.5-13.8-8.6&#10;&#9;&#9;c-0.2-0.1-0.4-0.2-0.5-0.5l-14.5-51L277,216.9z"/>
	<path class="st1_augmented-reality-3-33" d="M222.3,251.7c-0.1,1.1,1.9,118.6,1.9,118.6s9.3,4.5,23,1l6-84.4l7.8,83.9c0,0,9.4,6.7,23.1,2.6l-8-126.9&#10;&#9;&#9;L222.3,251.7z"/>
	<path class="st0_augmented-reality-3-33" d="M275.2,375.4c-5.1,0.1-10.2-1.3-14.6-4.1c-0.2-0.1-0.3-0.3-0.3-0.5l-7-75.4l-5.4,75.9c0,0.3-0.2,0.6-0.5,0.6&#10;&#9;&#9;c-13.7,3.6-23.1-0.8-23.4-1c-0.2-0.1-0.4-0.4-0.4-0.6c-0.2-12-2-117.6-1.9-118.7c0-0.3,0.3-0.6,0.6-0.6l53.9-5.3&#10;&#9;&#9;c0.2,0,0.4,0,0.5,0.2c0.1,0.1,0.2,0.3,0.2,0.5l8,126.9c0,0.3-0.2,0.6-0.5,0.7C281.4,374.9,278.3,375.4,275.2,375.4z M261.7,370.4&#10;&#9;&#9;c6.6,3.8,14.5,4.7,21.7,2.5l-7.9-125.7l-52.6,5.1c0.1,8.8,1.8,109.9,1.9,117.5c1.9,0.8,10.2,3.7,21.6,0.9l6-83.9&#10;&#9;&#9;c0-0.4,0.3-0.6,0.7-0.6l0,0c0.4,0,0.7,0.3,0.7,0.6L261.7,370.4z"/>
	<path class="st1_augmented-reality-3-33" d="M195,219.5c-0.3,16.1,5.5,49.1,4,56.6c0,0-2.3,10.1-0.2,16s5.1,10.3,7.3,5.4s3.7-17,3.7-17s-1.5,13.5,2.9,8.5&#10;&#9;&#9;s1.8-14.6,1-16.1s1.2-51.4,1.2-51.4L195,219.5z"/>
	<path class="st0_augmented-reality-3-33" d="M203.8,300.3L203.8,300.3c-2.7-0.1-4.8-5.1-5.8-8c-2.1-6,0.1-16,0.2-16.4c0.8-3.8-0.4-14.7-1.6-26.2&#10;&#9;&#9;c-1.2-11-2.4-22.4-2.3-30.2c0-0.2,0.1-0.4,0.2-0.5c0.1-0.1,0.3-0.2,0.5-0.2l19.9,2c0.4,0,0.6,0.3,0.6,0.7&#10;&#9;&#9;c-0.8,19.6-1.8,49.3-1.3,51.1c0.9,1.6,3.5,11.5-1.1,16.8c-0.4,0.5-1.6,1.8-2.8,1.3c-0.7-0.4-1.2-1.2-1.3-2&#10;&#9;&#9;c-0.5,3.1-1.3,6.1-2.4,9.1C205.9,299.5,204.9,300.3,203.8,300.3z M195.7,220.3c0,7.7,1.2,18.6,2.3,29.3c1.3,12.2,2.5,22.7,1.6,26.7&#10;&#9;&#9;c0,0.1-2.2,10-0.3,15.6c1.7,4.8,3.4,7,4.4,7.1c0.7,0,1.2-1,1.5-1.7c2.1-4.7,3.6-16.7,3.6-16.8c0-0.4,0.3-0.6,0.7-0.6c0,0,0,0,0.1,0&#10;&#9;&#9;c0.4,0,0.7,0.4,0.6,0.8c-0.5,4.3-0.2,8.5,0.5,8.8c0.1,0,0.4,0,1.2-0.9c4.1-4.7,1.7-13.8,0.9-15.3s0.6-38.6,1.1-51.1L195.7,220.3z"/>
	<path class="st1_augmented-reality-3-33" d="M278.4,182.7c-11.2-9.6-50.1-14.6-63.3-7.1s-22.3,31.5-21.4,48.5l23,3l1-13.9l0.1,46.3h63.4&#10;&#9;&#9;c0,0-5.1-48.1-5.2-47s3.6,16.9,3.6,16.9l20.4-5.4C300,224.1,289.6,192.4,278.4,182.7z"/>
	<path class="st0_augmented-reality-3-33" d="M281.2,260.2h-63.4c-0.4,0-0.7-0.3-0.7-0.7c0,0,0,0,0,0l-0.1-31.7c-0.1,0.1-0.3,0.1-0.4,0.1l-23-3&#10;&#9;&#9;c-0.3,0-0.6-0.3-0.6-0.6c-1-16.8,8.1-41.4,21.7-49.2c12.9-7.4,52.4-2.9,64.1,7.1c11.2,9.6,21.4,40.3,21.9,41.6c0.1,0.2,0,0.4,0,0.6&#10;&#9;&#9;c-0.1,0.2-0.3,0.3-0.4,0.3l-20.4,5.4c-0.2,0-0.4,0-0.5-0.1c-0.2-0.1-0.3-0.3-0.3-0.4c-0.1-0.5-0.3-1.2-0.4-1.9&#10;&#9;&#9;c0.3,2.6,0.6,5.4,0.9,8.3c1.3,11.8,2.5,23.5,2.5,23.5c0,0.4-0.2,0.7-0.6,0.8C281.3,260.3,281.3,260.3,281.2,260.2L281.2,260.2z&#10;&#9;&#9; M218.5,258.8h62c-1.2-11.7-4.1-38.3-4.9-44.8c-0.1-0.5-0.2-1.1-0.2-1.6c0-0.4,0.3-0.7,0.7-0.7c0.3,0,0.5,0,0.7,0.8l0,0&#10;&#9;&#9;c0,0.1,0,0.1,0,0.2c0,0.3,0.1,0.6,0.2,1c0.5,2.9,2.1,9.9,3.2,14.8l19-5c-1.6-4.7-11.2-31.7-21.2-40.3l0,0c-11.4-9.8-50-14.1-62.5-7&#10;&#9;&#9;c-13,7.4-21.8,30.9-21,47.3l21.7,2.9l0.9-13.2c0-0.4,0.3-0.7,0.7-0.6c0.4,0,0.7,0.3,0.7,0.7L218.5,258.8z"/>
	<path class="st1_augmented-reality-3-33" d="M254.8,174.8l0.8,10.6c0,0,1,2.8-9.6,0.5s-12.1-7.1-12.1-7.1l-2.6-20.7c0-1.3-0.3-13.5-1.2-24.4&#10;&#9;&#9;c12.6-1,34.8-4.1,36.8-3.6c1.2,7.2,2.6,29.8,2,34.1C267.8,172.5,254.8,174.8,254.8,174.8z"/>
	<path class="st0_augmented-reality-3-33" d="M252.6,187.5c-2.3-0.1-4.5-0.4-6.7-0.9c-10.9-2.3-12.5-7.4-12.6-7.6c-2.6-20.8-2.6-20.8-2.6-20.8v-0.2&#10;&#9;&#9;c-0.1-4.1-0.4-14.7-1.2-24.2c0-0.2,0-0.4,0.2-0.5c0.1-0.1,0.3-0.2,0.5-0.2c5.4-0.4,12.8-1.3,19.2-2c10.6-1.2,16.6-1.9,17.8-1.5&#10;&#9;&#9;c0.3,0.1,0.5,0.3,0.5,0.6c1.2,7.1,2.6,29.9,2,34.3c-1.1,7.6-11.4,10.4-14.1,11l0.8,10c0.1,0.5,0,0.9-0.4,1.3&#10;&#9;&#9;C255.4,187.2,254.3,187.5,252.6,187.5z M234.6,178.8c0,0,1.7,4.4,11.5,6.5c6.8,1.4,8.4,0.7,8.7,0.4c0.1-0.1,0.1-0.1,0.1-0.1&#10;&#9;&#9;l-0.9-10.8c0-0.4,0.2-0.7,0.6-0.7c0.1,0,12.5-2.4,13.6-9.9c0.6-4.2-0.8-25.7-1.9-33.3c-2-0.1-9.9,0.8-16.9,1.6&#10;&#9;&#9;c-6.2,0.7-13.2,1.5-18.6,2c0.7,9.4,1,19.6,1.1,23.6v0.1C232,158.4,234.5,178.7,234.6,178.8L234.6,178.8z"/>
	<path class="st1_augmented-reality-3-33" d="M252.6,153c1.5,2.3,3,5.1,2.4,5.9c-1.2,1.5-4.9,0.8-4.9,0.8"/>
	<path class="st0_augmented-reality-3-33" d="M251.9,160.5c-0.7,0-1.3-0.1-2-0.2c-0.3-0.1-0.6-0.4-0.5-0.7c0.1-0.3,0.4-0.6,0.7-0.5c0,0,0,0,0,0&#10;&#9;&#9;c0.9,0.2,3.5,0.4,4.3-0.6c0,0,0.4-0.8-2.4-5.2c-0.2-0.3-0.2-0.7,0.1-0.9s0.7-0.2,0.9,0.1c0,0,0.1,0.1,0.1,0.1c3,4.7,2.9,6,2.3,6.7&#10;&#9;&#9;C254.5,160.2,253.2,160.6,251.9,160.5z"/>
	<path class="st0_augmented-reality-3-33" d="M254.8,174.8c0,0-8.3,0.4-11.3-2.7c0,0,1.2,7.5,12.1,12.2L254.8,174.8z"/>
	<path class="st0_augmented-reality-3-33" d="M255.5,184.9c-0.1,0-0.2,0-0.2,0c-11.1-4.8-12.4-12.3-12.4-12.6c0-0.3,0.1-0.5,0.3-0.6&#10;&#9;&#9;c0.2-0.1,0.5-0.1,0.7,0.1c2.8,2.8,10.8,2.5,10.9,2.5l0,0c0.3,0,0.6,0.3,0.6,0.6l0.7,9.5c0,0.2-0.1,0.4-0.3,0.6&#10;&#9;&#9;C255.8,184.9,255.6,184.9,255.5,184.9z M244.6,173.7c1,2.3,3.6,6.4,10.2,9.6l-0.6-7.8C252.5,175.5,247.8,175.4,244.6,173.7z"/>
	<path class="st1_augmented-reality-3-33" d="M230,151.9c0,0,6.6-3.8,10.7-16c0.1-0.3,21.8,5.6,23.5,5.7c5.1,0.6,7.7-1.4,9.1-7.1c0.9-3.6,0.5-12.2-1.8-14.6&#10;&#9;&#9;c-1.5,3.1-4.3,5.5-7.7,6.4c3.9-2.2,5.3-7.2,3.1-11.1c-0.7-1.2-1.7-2.2-2.8-3c-0.8,2.8-2.7,5.1-5.2,6.5c-2.5,1.3-5.3,2.2-8.1,2.6&#10;&#9;&#9;c2.7-2.4,3.2-6.4,1.2-9.4c-1.9,2.7-4.8,4.6-8.1,5.3c-3.3,0.7-6.8-0.1-10.1,0.4c-9.6,1.2-12.8,14-12.2,22c0.1,1.8,5.3,16.4,4.9,16.9&#10;&#9;&#9;L230,151.9z"/>
	<path class="st0_augmented-reality-3-33" d="M226.5,157.2c-0.2,0-0.3-0.1-0.5-0.2c-0.2-0.2-0.3-0.4-0.2-0.7c-0.1-0.8-1.4-4.8-2.4-8c-1-2.9-1.9-5.8-2.6-8.7&#10;&#9;&#9;c-0.6-8.7,2.9-21.5,12.8-22.7c1.6-0.2,3.2-0.2,4.8-0.1c1.8,0.1,3.6,0,5.4-0.2c3.1-0.6,5.8-2.4,7.6-5c0.1-0.2,0.3-0.3,0.6-0.3&#10;&#9;&#9;c0.2,0,0.4,0.1,0.6,0.3c1.8,2.7,1.8,6.1,0.1,8.8c2.1-0.4,4-1.1,5.9-2.1c2.4-1.3,4.1-3.4,4.9-6c0-0.2,0.2-0.4,0.4-0.5&#10;&#9;&#9;c0.2-0.1,0.4-0.1,0.6,0c2.7,1.7,4.3,4.6,4.2,7.7c0,1.6-0.5,3.1-1.3,4.4c1.5-1.2,2.7-2.6,3.5-4.3c0.1-0.2,0.3-0.3,0.5-0.4&#10;&#9;&#9;c0.2,0,0.4,0,0.6,0.2c2.7,2.7,2.9,11.6,2,15.2c-1.5,6-4.4,8.2-9.9,7.6c-0.8-0.1-5-1.1-11.9-2.9c-4.3-1.1-9.5-2.4-11.1-2.8&#10;&#9;&#9;c-3.9,11.1-9.7,15.2-10.7,15.8c-2.6,3.4-3.3,4.2-3.4,4.4l0,0l0,0l0,0C226.9,157,226.7,157.1,226.5,157.2z M236.6,118.1&#10;&#9;&#9;c-0.9,0-1.8,0-2.7,0.2c-9,1.2-12.2,13.1-11.6,21.3c0.1,0.8,1.4,5,2.5,8.4c1.1,3.6,1.8,5.7,2.1,6.9l2.6-3.3c0.1-0.1,0.1-0.1,0.2-0.2&#10;&#9;&#9;c0.1,0,6.4-3.9,10.4-15.6c0.2-0.8,0.2-0.8,12.6,2.4c5.1,1.3,10.9,2.8,11.7,2.9c4.8,0.5,7-1.3,8.4-6.6c0.8-3.2,0.5-10.2-1.1-13.1&#10;&#9;&#9;c-1.7,2.8-4.4,4.9-7.5,5.8c-0.3,0.1-0.7-0.1-0.8-0.4c-0.1-0.3,0-0.7,0.3-0.9c3.6-2,4.9-6.6,2.8-10.2c-0.5-0.8-1.1-1.6-1.8-2.2&#10;&#9;&#9;c-1,2.5-2.9,4.6-5.3,5.9c-2.6,1.4-5.4,2.3-8.3,2.7c-0.3,0.1-0.6-0.1-0.8-0.4c-0.1-0.3-0.1-0.6,0.2-0.8c2.1-1.9,2.8-5,1.6-7.7&#10;&#9;&#9;c-2,2.4-4.8,4.1-7.9,4.7c-1.9,0.3-3.8,0.4-5.7,0.3C237.8,118.1,237.2,118.1,236.6,118.1z"/>
	<path class="st1_augmented-reality-3-33" d="M235.1,149.3c0,0-5.1-7.1-10.1-1.3s0.6,13.1,8.1,14.1"/>
	<path class="st0_augmented-reality-3-33" d="M233.1,162.8H233c-4.6-0.6-8.6-3.6-10-7.3c-1.1-2.7-0.5-5.8,1.5-8c1.2-1.6,3-2.5,5-2.5&#10;&#9;&#9;c3.5,0.1,6.2,3.7,6.3,3.9c0.2,0.3,0.2,0.7-0.1,1c0,0,0,0,0,0c-0.3,0.2-0.7,0.2-1-0.1c0,0,0,0,0,0c0,0-2.4-3.2-5.2-3.3&#10;&#9;&#9;c-1.5,0-2.9,0.8-3.8,2c-1.7,1.8-2.2,4.3-1.3,6.6c1.2,3.3,4.8,5.8,8.9,6.4c0.4,0.1,0.6,0.4,0.6,0.8&#10;&#9;&#9;C233.8,162.6,233.5,162.8,233.1,162.8L233.1,162.8z"/>
	<path class="st0_augmented-reality-3-33" d="M250.8,165.9c-0.6,0-1.3-0.1-1.9-0.2c-4.4-1.1-6.2-5.7-6.3-5.9c-0.1-0.3,0-0.7,0.4-0.8c0.3-0.1,0.7,0,0.8,0.4&#10;&#9;&#9;c0,0,1.7,4.2,5.4,5.1c2.8,0.7,6.1-0.5,9.7-3.6c0.3-0.2,0.7-0.2,0.9,0.1c0.2,0.3,0.2,0.7-0.1,0.9c0,0,0,0,0,0&#10;&#9;&#9;C256.5,164.5,253.5,165.9,250.8,165.9z"/>
</g>
<g id="Tracker_augmented-reality-3-33">
	<circle class="st3_augmented-reality-3-33 targetColor" cx="236.6" cy="321.3" r="6.9" style="fill: rgb(0, 255, 224);"/>
	<circle class="st3_augmented-reality-3-33 targetColor" cx="235.1" cy="368.1" r="6.9" style="fill: rgb(0, 255, 224);"/>
	<circle class="st3_augmented-reality-3-33 targetColor" cx="273.5" cy="373.1" r="6.9" style="fill: rgb(0, 255, 224);"/>
	<circle class="st3_augmented-reality-3-33 targetColor" cx="269.1" cy="321.3" r="6.9" style="fill: rgb(0, 255, 224);"/>
	<circle class="st3_augmented-reality-3-33 targetColor" cx="269.1" cy="271.7" r="6.9" style="fill: rgb(0, 255, 224);"/>
	<circle class="st3_augmented-reality-3-33 targetColor" cx="235.1" cy="271.7" r="6.9" style="fill: rgb(0, 255, 224);"/>
	<circle class="st3_augmented-reality-3-33 targetColor" cx="223.1" cy="186.8" r="6.9" style="fill: rgb(0, 255, 224);"/>
	<circle class="st3_augmented-reality-3-33 targetColor" cx="205" cy="228.4" r="6.9" style="fill: rgb(0, 255, 224);"/>
	<circle class="st3_augmented-reality-3-33 targetColor" cx="204.8" cy="270.3" r="6.9" style="fill: rgb(0, 255, 224);"/>
	<circle class="st3_augmented-reality-3-33 targetColor" cx="269.1" cy="190.7" r="6.9" style="fill: rgb(0, 255, 224);"/>
	<circle class="st3_augmented-reality-3-33 targetColor" cx="251.2" cy="123.2" r="6.9" style="fill: rgb(0, 255, 224);"/>
	<circle class="st3_augmented-reality-3-33 targetColor" cx="252.6" cy="149.5" r="6.9" style="fill: rgb(0, 255, 224);"/>
	<circle class="st3_augmented-reality-3-33 targetColor" cx="291.1" cy="228.4" r="6.9" style="fill: rgb(0, 255, 224);"/>
	<circle class="st3_augmented-reality-3-33 targetColor" cx="304.9" cy="263.4" r="6.9" style="fill: rgb(0, 255, 224);"/>
	<path class="st3_augmented-reality-3-33 targetColor" d="M235.1,370L235.1,370c-1,0-1.9-0.9-1.8-1.9l1.4-46.8l-1.4-49.3l-11.1-78.2L207,228.7l2,40.5&#10;&#9;&#9;c0.1,1-0.7,1.9-1.8,2c-1,0.1-1.9-0.7-2-1.7c0,0,0-0.1,0-0.1l-2.1-41c0-0.3,0-0.6,0.2-0.9l18.1-41.6c0.4-1,1.5-1.4,2.5-1&#10;&#9;&#9;c0.6,0.3,1,0.8,1.1,1.5l12,84.9c0,0.1,0,0.1,0,0.2l1.4,49.5l-1.4,47C237,369.2,236.1,370,235.1,370z" style="fill: rgb(0, 255, 224);"/>
	<path class="st3_augmented-reality-3-33 targetColor" d="M273.5,375c-1,0-1.8-0.8-1.9-1.7l-4.4-53.3V190.7c0-1,0.8-1.9,1.8-1.9c0.7,0,1.3,0.3,1.7,0.9l22,37.6&#10;&#9;&#9;c0.1,0.1,0.1,0.2,0.2,0.4l12.2,36.5c0.3,1-0.2,2.1-1.2,2.4s-2.1-0.2-2.4-1.2l0,0l-12.2-36.3L271,197.7v122l4.4,53.2&#10;&#9;&#9;c0.1,1-0.7,1.9-1.7,2L273.5,375z" style="fill: rgb(0, 255, 224);"/>
	<path class="st3_augmented-reality-3-33 targetColor" d="M267.6,275h-0.2l-32.7-2.9c-1-0.1-1.8-1-1.7-2c0.1-1,1-1.8,2-1.7l32.7,2.9c1,0,1.8,0.9,1.8,2&#10;&#9;&#9;C269.5,274.3,268.6,275.1,267.6,275L267.6,275z" style="fill: rgb(0, 255, 224);"/>
	<path class="st3_augmented-reality-3-33 targetColor" d="M269.1,192.6L269.1,192.6l-46.8-2.1c-1,0-1.8-0.9-1.8-2c0-1,0.9-1.8,2-1.8l46.7,2.1c1,0,1.9,0.9,1.8,1.9&#10;&#9;&#9;C271,191.8,270.1,192.6,269.1,192.6L269.1,192.6z" style="fill: rgb(0, 255, 224);"/>
	<path class="st3_augmented-reality-3-33 targetColor" d="M247.3,191.6H247c-1-0.1-1.8-1.1-1.6-2.1c0,0,0,0,0,0l5.2-40l-2.1-28c-0.1-1,0.7-1.9,1.7-2&#10;&#9;&#9;c1-0.1,1.9,0.7,2,1.7l2.2,28.2c0,0.1,0,0.3,0,0.4l-5.2,40.2C249,190.9,248.2,191.6,247.3,191.6z" style="fill: rgb(0, 255, 224);"/>
</g>
</svg>